<?xml version="1.0" encoding="utf-8"?><svg viewBox="0 0 33 32" xmlns="http://www.w3.org/2000/svg" xmlns:xlink="http://www.w3.org/1999/xlink"><style>:root>svg{display:none}:root>svg:target{display:block}</style><svg fill="none" viewBox="0 0 24 24" id="login" xmlns="http://www.w3.org/2000/svg"><path d="M11 7L9.6 8.4l2.6 2.6H2v2h10.2l-2.6 2.6L11 17l5-5-5-5zm9 12h-8v2h8c1.1 0 2-.9 2-2V5c0-1.1-.9-2-2-2h-8v2h8v14z" fill="#262F37"/></svg><svg fill="none" viewBox="0 0 33 32" id="wifi" xmlns="http://www.w3.org/2000/svg"><path d="M1.334 12.767a21.335 21.335 0 0130.17 0M6.047 17.481a14.666 14.666 0 0120.742 0M10.762 22.195a8 8 0 0111.313 0" stroke="#000" stroke-width="2" stroke-linecap="round"/></svg></svg>